<svg xmlns="http://www.w3.org/2000/svg" xmlns:xlink="http://www.w3.org/1999/xlink" width="22" height="34" viewBox="0 0 22 34"><svg width="12" height="12" viewBox="0 0 12 12" id="icon-close" y="0"><title>apm_filter_close_icon_normal</title><g stroke="#4C5667" stroke-width="2" fill="none" fill-rule="evenodd" stroke-linecap="round"><path d="M1.555 1.9l8.53 8.53M1.555 10.43l8.53-8.53"></path></g></svg><svg width="22" height="22" viewBox="0 0 22 22" id="icon-set" y="12"><title>apm_contrast_set</title><g transform="translate(1 1)" fill-rule="nonzero" fill="#979797"><path d="M10 12.5a2.5 2.5 0 1 0 0-5 2.5 2.5 0 0 0 0 5zm0 1.5a4 4 0 1 1 0-8 4 4 0 0 1 0 8z"></path><path d="M8.214 15.991l.536.16V18a1.25 1.25 0 0 0 2.5 0v-1.85l.536-.159c.412-.122.81-.287 1.187-.492l.492-.266 1.308 1.308a1.25 1.25 0 1 0 1.768-1.768l-1.308-1.308.266-.492c.205-.377.37-.775.492-1.187l.16-.536H18a1.25 1.25 0 0 0 0-2.5h-1.85l-.159-.536a6.207 6.207 0 0 0-.492-1.187l-.266-.492 1.308-1.308a1.25 1.25 0 1 0-1.768-1.768l-1.308 1.308-.492-.266a6.207 6.207 0 0 0-1.187-.492l-.536-.16V2a1.25 1.25 0 0 0-2.5 0v1.85l-.536.159c-.412.122-.81.287-1.187.492l-.492.266L5.227 3.46a1.25 1.25 0 0 0-1.768 1.768l1.308 1.308-.266.492c-.205.377-.37.775-.492 1.187l-.16.536H2a1.25 1.25 0 1 0 0 2.5h1.85l.159.536c.122.412.287.81.492 1.187l.266.492-1.308 1.308a1.25 1.25 0 1 0 1.768 1.768l1.308-1.308.492.266c.377.205.775.37 1.187.492zM6.82 17.07l-.532.532a2.75 2.75 0 0 1-3.89-3.889l.533-.532a7.705 7.705 0 0 1-.179-.43H2a2.75 2.75 0 1 1 0-5.5h.752c.055-.145.115-.289.179-.43l-.532-.532a2.75 2.75 0 0 1 3.889-3.89l.532.533c.141-.064.285-.124.43-.179V2a2.75 2.75 0 0 1 5.5 0v.752c.145.055.289.115.43.179l.532-.532a2.75 2.75 0 0 1 3.89 3.889l-.533.532c.064.141.124.285.179.43H18a2.75 2.75 0 1 1 0 5.5h-.752a7.705 7.705 0 0 1-.179.43l.532.532a2.75 2.75 0 0 1-3.889 3.89l-.532-.533a7.705 7.705 0 0 1-.43.179V18a2.75 2.75 0 1 1-5.5 0v-.752a7.705 7.705 0 0 1-.43-.179z"></path></g></svg></svg>