<?xml version="1.0" encoding="UTF-8"?>
<svg xmlns="http://www.w3.org/2000/svg" xmlns:xlink="http://www.w3.org/1999/xlink" width="22px" height="22px" viewBox="0 0 22 22" version="1.1">
    
    <title>apm_contrast_set</title>
    <desc>Created with Sketch.</desc>
    <defs/>
    <g id="APM-Slice-Box" stroke="none" stroke-width="1" fill="none" fill-rule="evenodd">
        <g id="02apm_slice_box" transform="translate(-416.000000, -1228.000000)" fill-rule="nonzero" fill="#979797">
            <g id="对比设置" transform="translate(416.000000, 1188.000000)">
                <g id="apm_contrast_set" transform="translate(0.000000, 40.000000)">
                    <g id="Group-4" transform="translate(1.000000, 1.000000)">
                        <path d="M10,12.5 C11.3807119,12.5 12.5,11.3807119 12.5,10 C12.5,8.61928813 11.3807119,7.5 10,7.5 C8.61928813,7.5 7.5,8.61928813 7.5,10 C7.5,11.3807119 8.61928813,12.5 10,12.5 Z M10,14 C7.790861,14 6,12.209139 6,10 C6,7.790861 7.790861,6 10,6 C12.209139,6 14,7.790861 14,10 C14,12.209139 12.209139,14 10,14 Z" id="Oval-8"/>
                        <path d="M8.21393723,15.9912814 L8.75,16.1508215 L8.75,18 C8.75,18.6903559 9.30964406,19.25 10,19.25 C10.6903559,19.25 11.25,18.6903559 11.25,18 L11.25,16.1508215 L11.7860628,15.9912814 C12.1982907,15.8685963 12.5957418,15.7035712 12.9728741,15.4992112 L13.4648519,15.2326189 L14.7729708,16.5407377 C15.2611261,17.0288931 16.0525824,17.0288931 16.5407377,16.5407377 C17.0288931,16.0525824 17.0288931,15.2611261 16.5407377,14.7729708 L15.2326189,13.4648519 L15.4992112,12.9728741 C15.7035712,12.5957418 15.8685963,12.1982907 15.9912814,11.7860628 L16.1508215,11.25 L18,11.25 C18.6903559,11.25 19.25,10.6903559 19.25,10 C19.25,9.30964406 18.6903559,8.75 18,8.75 L16.1508215,8.75 L15.9912814,8.21393723 C15.8685963,7.80170928 15.7035712,7.40425824 15.4992112,7.02712594 L15.2326189,6.53514806 L16.5407377,5.22702923 C17.0288931,4.73887386 17.0288931,3.94741764 16.5407377,3.45926227 C16.0525824,2.97110691 15.2611261,2.97110691 14.7729708,3.45926227 L13.4648519,4.76738111 L12.9728741,4.50078878 C12.5957418,4.29642883 12.1982907,4.13140366 11.7860628,4.00871862 L11.25,3.84917854 L11.25,2 C11.25,1.30964406 10.6903559,0.75 10,0.75 C9.30964406,0.75 8.75,1.30964406 8.75,2 L8.75,3.84917854 L8.21393723,4.00871862 C7.80170928,4.13140366 7.40425824,4.29642883 7.02712594,4.50078878 L6.53514806,4.76738111 L5.22702923,3.45926227 C4.73887386,2.97110691 3.94741764,2.97110691 3.45926227,3.45926227 C2.97110691,3.94741764 2.97110691,4.73887386 3.45926227,5.22702923 L4.76738111,6.53514806 L4.50078878,7.02712594 C4.29642883,7.40425824 4.13140366,7.80170928 4.00871862,8.21393723 L3.84917854,8.75 L2,8.75 C1.30964406,8.75 0.75,9.30964406 0.75,10 C0.75,10.6903559 1.30964406,11.25 2,11.25 L3.84917854,11.25 L4.00871862,11.7860628 C4.13140366,12.1982907 4.29642883,12.5957418 4.50078878,12.9728741 L4.76738111,13.4648519 L3.45926227,14.7729708 C2.97110691,15.2611261 2.97110691,16.0525824 3.45926227,16.5407377 C3.94741764,17.0288931 4.73887386,17.0288931 5.22702923,16.5407377 L6.53514806,15.2326189 L7.02712594,15.4992112 C7.40425824,15.7035712 7.80170928,15.8685963 8.21393723,15.9912814 Z M6.81976076,17.0693265 L6.2876894,17.6013979 C5.2137476,18.6753397 3.4725439,18.6753397 2.3986021,17.6013979 C1.3246603,16.5274561 1.3246603,14.7862524 2.3986021,13.7123106 L2.93067346,13.1802392 C2.86692011,13.0387214 2.80742636,12.8952504 2.75228695,12.75 L2,12.75 C0.481216938,12.75 -0.75,11.5187831 -0.75,10 C-0.75,8.48121694 0.481216938,7.25 2,7.25 L2.75228695,7.25 C2.80742636,7.10474957 2.86692011,6.9612786 2.93067346,6.81976076 L2.3986021,6.2876894 C1.3246603,5.2137476 1.3246603,3.4725439 2.3986021,2.3986021 C3.4725439,1.3246603 5.2137476,1.3246603 6.2876894,2.3986021 L6.81976076,2.93067346 C6.9612786,2.86692011 7.10474957,2.80742636 7.25,2.75228695 L7.25,2 C7.25,0.481216938 8.48121694,-0.75 10,-0.75 C11.5187831,-0.75 12.75,0.481216938 12.75,2 L12.75,2.75228695 C12.8952504,2.80742636 13.0387214,2.86692011 13.1802392,2.93067346 L13.7123106,2.3986021 C14.7862524,1.3246603 16.5274561,1.3246603 17.6013979,2.3986021 C18.6753397,3.4725439 18.6753397,5.2137476 17.6013979,6.2876894 L17.0693265,6.81976076 C17.1330799,6.9612786 17.1925736,7.10474957 17.247713,7.25 L18,7.25 C19.5187831,7.25 20.75,8.48121694 20.75,10 C20.75,11.5187831 19.5187831,12.75 18,12.75 L17.247713,12.75 C17.1925736,12.8952504 17.1330799,13.0387214 17.0693265,13.1802392 L17.6013979,13.7123106 C18.6753397,14.7862524 18.6753397,16.5274561 17.6013979,17.6013979 C16.5274561,18.6753397 14.7862524,18.6753397 13.7123106,17.6013979 L13.1802392,17.0693265 C13.0387214,17.1330799 12.8952504,17.1925736 12.75,17.247713 L12.75,18 C12.75,19.5187831 11.5187831,20.75 10,20.75 C8.48121694,20.75 7.25,19.5187831 7.25,18 L7.25,17.247713 C7.10474957,17.1925736 6.9612786,17.1330799 6.81976076,17.0693265 Z" id="Combined-Shape"/>
                    </g>
                </g>
            </g>
        </g>
    </g>
</svg>
