<?xml version="1.0" encoding="UTF-8"?>
<svg xmlns="http://www.w3.org/2000/svg" xmlns:xlink="http://www.w3.org/1999/xlink" width="10px" height="10px" viewBox="0 0 10 10" version="1.1">
    
    <title>apm_filter_arrowdown</title>
    <desc>Created with Sketch.</desc>
    <defs/>
    <g id="切图" stroke="none" stroke-width="1" fill="none" fill-rule="evenodd">
        <g transform="translate(-736.000000, -661.000000)" id="筛选下拉" fill-rule="nonzero" fill="#B5B5B5">
            <g transform="translate(736.000000, 621.000000)">
                <g id="apm_filter_arrowdown" transform="translate(0.000000, 40.000000)">
                    <g id="箭头" transform="translate(0.000000, 2.000000)">
                        <path d="M0.473232841,1.53389301 L4.46966991,5.53033009 C4.76256313,5.8232233 5.23743687,5.8232233 5.53033009,5.53033009 C5.8232233,5.23743687 5.8232233,4.76256313 5.53033009,4.46966991 L1.53389301,0.473232841 C1.24099979,0.180339623 0.76612606,0.180339623 0.473232841,0.473232841 C0.180339623,0.76612606 0.180339623,1.24099979 0.473232841,1.53389301 Z" id="Path-17"/>
                        <path d="M5.53033009,5.53033009 L9.52984943,1.53081074 C9.82274265,1.23791752 9.82274265,0.763043785 9.52984943,0.470150566 C9.23695622,0.177257347 8.76208248,0.177257347 8.46918926,0.470150566 L4.46966991,4.46966991 C4.1767767,4.76256313 4.1767767,5.23743687 4.46966991,5.53033009 C4.76256313,5.8232233 5.23743687,5.8232233 5.53033009,5.53033009 Z" id="Path-17"/>
                    </g>
                </g>
            </g>
        </g>
    </g>
</svg>
